# xmcd
#
# Track frame offsets: 
#        150
#        12589
#        26430
#        38249
#        48587
#        58747
#        71137
#        81912
#        95332
#        105950
#        115690
#        126791
#        139610
#        148661
#        159274
#        172390
#        182596
#        192118
#        202992
#        210441
#
# Disc length: 2945 seconds
#
# Revision: 0
# Processed by: cddbd v1.5.2PL0 Copyright (c) Steve Scherf et al.
# Submitted via: ExactAudioCopy v1.3
#
DISCID=160b7f14
DTITLE=Various Artist - Gountry Gals The Absolutely Essential
DYEAR=2015
DGENRE=Country
TTITLE0=Patsy Cline - Crazy
TTITLE1=Brenda Lee - I Want To Be Wanted
TTITLE2=The Browns - I Heard  a Bluebird Sing
TTITLE3=Loretta Lynn - Im A Honky Tomk Girl
TTITLE4=Kitty Wells - I Cant Stop Loving You
TTITLE5=Skeeter Davis - (I Cant Help You) Im Falling Too
TTITLE6=Martha Carson - Satisfied 
TTITLE7=The Carter Family - Wabash Cannonball
TTITLE8=Connie Hall - The Bottle Or Me
TTITLE9=Dolly Parton - The Love You Gave
TTITLE10=Patsy Cline - Leavin On Your Mind
TTITLE11=Jean Sheard - Beautiful lies
TTITLE12=June Carter - You Flopped When You Got Me Alone
TTITLE13=Wilma Lee and Stormy Cooper - Theres A Big Wheel
TTITLE14=Kitty Wells - Makin Believe 
TTITLE15=The Maddox Brothers and Rose - Move It On Over
TTITLE16=Dottie West - I Lost You Win Im Leaving
TTITLE17=Carolyn Bradshaw - Say No No No
TTITLE18=June Carter - Dude Cowboy
TTITLE19=Patti Page - Everytime I Hear Your Name
EXTD=
EXTT0=
EXTT1=
EXTT2=
EXTT3=
EXTT4=
EXTT5=
EXTT6=
EXTT7=
EXTT8=
EXTT9=
EXTT10=
EXTT11=
EXTT12=
EXTT13=
EXTT14=
EXTT15=
EXTT16=
EXTT17=
EXTT18=
EXTT19=
PLAYORDER=
